HIERARCHY
ROOT Hips
{
	OFFSET 0.000000 0.000000 0.000000
	CHANNELS 6 Xposition Yposition Zposition Xrotation Yrotation Zrotation
	JOINT LeftUpLeg_virtual
	{
		OFFSET 0.000000 0.000000 0.000000
		CHANNELS 3 Xrotation Yrotation Zrotation
		JOINT LeftUpLeg
		{
			OFFSET 15.427100 -6.655098 0.678600
			CHANNELS 3 Xrotation Yrotation Zrotation
			JOINT LeftLeg
			{
				OFFSET 4.081073 -39.591068 13.024000
				CHANNELS 3 Xrotation Yrotation Zrotation
				JOINT LeftFoot
				{
					OFFSET -4.081074 -37.707932 -15.979700
					CHANNELS 3 Xrotation Yrotation Zrotation
					JOINT LeftToeBase
					{
						OFFSET 5.346399 -15.068900 20.645000
						CHANNELS 3 Xrotation Yrotation Zrotation
						JOINT LeftToe_End
						{
							OFFSET 2.754700 0.931300 11.300900
							CHANNELS 3 Xrotation Yrotation Zrotation
							End Site
							{
								OFFSET 0 0 0
							}
						}
					}
				}
			}
		}
	}
	JOINT RightUpLeg_virtual
	{
		OFFSET 0.000000 0.000000 0.000000
		CHANNELS 3 Xrotation Yrotation Zrotation
		JOINT RightUpLeg
		{
			OFFSET -15.569500 -6.655098 0.678600
			CHANNELS 3 Xrotation Yrotation Zrotation
			JOINT RightLeg
			{
				OFFSET -4.081825 -39.591045 13.023800
				CHANNELS 3 Xrotation Yrotation Zrotation
				JOINT RightFoot
				{
					OFFSET 4.081824 -37.707954 -15.979600
					CHANNELS 3 Xrotation Yrotation Zrotation
					JOINT RightToeBase
					{
						OFFSET -5.346400 -15.068900 20.645000
						CHANNELS 3 Xrotation Yrotation Zrotation
						JOINT RightToe_End
						{
							OFFSET -2.754700 0.931300 11.300900
							CHANNELS 3 Xrotation Yrotation Zrotation
							End Site
							{
								OFFSET 0 0 0
							}
						}
					}
				}
			}
		}
	}
	JOINT Spine_virtual
	{
		OFFSET 0.000000 0.000000 0.000000
		CHANNELS 3 Xrotation Yrotation Zrotation
		JOINT Spine
		{
			OFFSET -0.279200 12.230698 -2.892100
			CHANNELS 3 Xrotation Yrotation Zrotation
			JOINT Spine1
			{
				OFFSET -0.232667 10.192268 -1.242267
				CHANNELS 3 Xrotation Yrotation Zrotation
				JOINT Spine1_split
				{
					OFFSET -0.232667 10.192268 -1.242267
					CHANNELS 3 Xrotation Yrotation Zrotation
					JOINT Spine2
					{
						OFFSET -0.232667 10.192268 -1.242267
						CHANNELS 3 Xrotation Yrotation Zrotation
						JOINT Neck_virtual
						{
							OFFSET 0.000000 0.000000 0.000000
							CHANNELS 3 Xrotation Yrotation Zrotation
							JOINT Neck
							{
								OFFSET -0.418800 17.814194 8.416900
								CHANNELS 3 Xrotation Yrotation Zrotation
								JOINT Head
								{
									OFFSET 0.000000 7.031097 3.806800
									CHANNELS 3 Xrotation Yrotation Zrotation
									JOINT HeadTop_End
									{
										OFFSET 0.000000 24.646606 12.978600
										CHANNELS 3 Xrotation Yrotation Zrotation
										End Site
										{
											OFFSET 0 0 0
										}
									}
								}
							}
						}
						JOINT LeftShoulder_virtual
						{
							OFFSET 0.000000 0.000000 0.000000
							CHANNELS 3 Xrotation Yrotation Zrotation
							JOINT LeftShoulder
							{
								OFFSET 8.476499 7.247704 -3.868750
								CHANNELS 3 Xrotation Yrotation Zrotation
								JOINT LeftShoulder_split
								{
									OFFSET 8.476499 7.247704 -3.868750
									CHANNELS 3 Xrotation Yrotation Zrotation
									JOINT LeftArm
									{
										OFFSET 9.308998 -2.777710 0.208600
										CHANNELS 3 Xrotation Yrotation Zrotation
										JOINT LeftForeArm
										{
											OFFSET 29.972298 0.000000 0.000000
											CHANNELS 3 Xrotation Yrotation Zrotation
											JOINT LeftHand
											{
												OFFSET 26.026505 0.000000 0.000000
												CHANNELS 3 Xrotation Yrotation Zrotation
												End Site
												{
													OFFSET 0 0 0
												}
											}
										}
									}
								}
							}
						}
						JOINT RightShoulder_virtual
						{
							OFFSET 0.000000 0.000000 0.000000
							CHANNELS 3 Xrotation Yrotation Zrotation
							JOINT RightShoulder
							{
								OFFSET -7.570500 7.247704 -3.868750
								CHANNELS 3 Xrotation Yrotation Zrotation
								JOINT RightShoulder_split
								{
									OFFSET -7.570500 7.247704 -3.868750
									CHANNELS 3 Xrotation Yrotation Zrotation
									JOINT RightArm
									{
										OFFSET -9.308998 -2.777710 0.208500
										CHANNELS 3 Xrotation Yrotation Zrotation
										JOINT RightForeArm
										{
											OFFSET -29.972300 0.000000 0.000000
											CHANNELS 3 Xrotation Yrotation Zrotation
											JOINT RightHand
											{
												OFFSET -26.026505 0.000000 0.000000
												CHANNELS 3 Xrotation Yrotation Zrotation
												End Site
												{
													OFFSET 0 0 0
												}
											}
										}
									}
								}
							}
						}
					}
				}
			}
		}
	}
}
MOTION
Frames: 10
Frame Time: 0.03333333
-0.230141 91.623123 1.197067 0.000000 0.000000 0.000000 -0.625133 7.373391 -2.746170 -1.670844 11.216985 16.446332 10.512267 -5.019478 -3.239113 -10.423955 1.416008 -8.174351 2.233849 -0.037987 -2.731339 0.000000 0.000000 0.000000 -0.554820 7.772458 -2.753779 -0.085183 -3.458341 -0.741030 9.553737 5.823290 4.751194 -4.289897 -0.463610 1.159886 -1.910710 0.452179 1.143170 0.000000 0.000000 0.000000 -0.214048 10.235882 -3.067708 9.229419 -0.245000 1.928946 3.141409 0.175573 -0.496026 0.303907 -2.114277 1.123902 0.000000 0.000000 0.000000 -4.308147 -0.032420 0.093978 -0.016772 0.202615 0.525387 6.099664 -4.238698 -1.089099 0.000000 0.000000 0.000000 -4.646185 -0.467925 0.205617 0.543460 -3.791584 -8.310948 -0.569835 -1.805600 0.730490 4.544315 1.417633 -71.944896 3.377225 -11.730013 1.263138 0.000000 0.000000 0.000000 -5.414899 -0.791433 0.184986 0.735652 8.370723 5.897785 -3.025976 -1.003724 -0.472243 3.519173 12.804125 76.760336 16.832597 19.381218 -4.928613 0.000000 0.000000 0.000000 
0.133885 91.621788 0.996567 0.000000 0.000000 0.000000 -0.536082 7.330257 -2.680317 -1.454061 11.073275 16.170394 10.544206 -4.893270 -3.253341 -10.695484 1.498800 -8.192778 2.239171 -0.064469 -2.628021 0.000000 0.000000 0.000000 -0.353003 7.748043 -2.764133 -0.339468 -3.858187 -0.997310 9.825189 5.881678 4.726707 -4.597206 -0.327216 0.723107 -0.974802 0.470203 1.046641 0.000000 0.000000 0.000000 -0.079482 9.770591 -3.042882 9.132212 -0.205996 1.930471 3.107487 0.201191 -0.509810 0.288568 -2.227579 0.955497 0.000000 0.000000 0.000000 -4.208319 -0.003342 0.085742 0.025402 0.283665 0.519912 6.115405 -4.398777 -0.920697 0.000000 0.000000 0.000000 -4.646959 -0.448231 0.153894 0.583927 -3.737260 -8.223281 -0.650512 -1.672883 0.751052 4.437569 1.293282 -71.963822 3.342967 -11.822783 1.243063 0.000000 0.000000 0.000000 -5.441990 -0.759105 0.207531 0.713737 8.036333 5.741182 -3.058169 -0.949682 -0.491789 3.445263 13.197807 76.645944 16.893305 19.829374 -5.109142 0.000000 0.000000 0.000000 
0.636151 91.484497 1.079708 0.000000 0.000000 0.000000 -0.549951 7.377791 -2.617631 -1.263791 10.828510 15.833494 10.761523 -4.750019 -3.370646 -11.137940 1.554581 -8.209703 2.247505 -0.092229 -2.463631 0.000000 0.000000 0.000000 -0.193640 7.710590 -2.805827 -0.291354 -4.051421 -1.489114 10.076827 6.073843 4.615098 -5.301516 0.008774 0.460169 -0.631594 0.491103 0.835857 0.000000 0.000000 0.000000 -0.044006 9.335358 -2.930446 8.963991 -0.098667 1.909459 3.114083 0.266405 -0.533402 0.304353 -2.225348 0.827642 0.000000 0.000000 0.000000 -4.073991 0.050586 0.077217 -0.059305 0.409303 0.386120 5.995469 -4.538943 -0.677988 0.000000 0.000000 0.000000 -4.590854 -0.404569 0.098413 0.635754 -3.688117 -8.009017 -0.779984 -1.697935 0.774401 4.312393 1.018921 -71.926215 3.396295 -11.899038 1.178856 0.000000 0.000000 0.000000 -5.376814 -0.694976 0.213658 0.722774 7.724038 5.516491 -3.012779 -1.070732 -0.502005 3.456961 13.731904 76.480476 17.024129 20.573047 -5.697278 0.000000 0.000000 0.000000 
1.201457 91.251656 1.447166 0.000000 0.000000 0.000000 -0.652510 7.471056 -2.557701 -1.099553 10.529935 15.464026 11.046651 -4.534507 -3.565983 -11.609487 1.581825 -8.199107 2.196882 -0.115494 -2.269528 0.000000 0.000000 0.000000 -0.089786 7.646708 -2.820213 0.112533 -4.102115 -2.220773 10.283867 6.343499 4.548081 -6.192257 0.497606 0.384513 -0.781504 0.520142 0.594812 0.000000 0.000000 0.000000 -0.136435 9.016686 -2.772106 8.752571 0.032360 1.878025 3.159357 0.347091 -0.540271 0.329773 -2.130409 0.784432 0.000000 0.000000 0.000000 -3.940771 0.102367 0.093797 -0.221562 0.554359 0.147058 5.774034 -4.680615 -0.366731 0.000000 0.000000 0.000000 -4.481022 -0.352229 0.062766 0.697981 -3.634487 -7.727889 -0.968806 -1.763499 0.809384 4.218662 0.612717 -71.929159 3.534160 -11.914221 1.077292 0.000000 0.000000 0.000000 -5.221868 -0.619928 0.220043 0.761775 7.467442 5.259147 -2.954810 -1.280855 -0.551097 3.523268 14.210914 76.328272 17.163821 21.408709 -6.590718 0.000000 0.000000 0.000000 
1.814041 91.015923 2.029484 0.000000 0.000000 0.000000 -0.806454 7.508995 -2.485703 -0.879758 10.122174 15.058653 11.326266 -4.180765 -3.782884 -12.104468 1.634899 -8.032883 2.055547 -0.121899 -2.052341 0.000000 0.000000 0.000000 -0.104404 7.473964 -2.799612 0.881574 -4.134028 -3.110404 10.177885 6.623124 4.597847 -7.070913 1.043904 0.602189 -1.125688 0.536054 0.400238 0.000000 0.000000 0.000000 -0.288668 8.861890 -2.639471 8.526044 0.161732 1.852837 3.229179 0.416525 -0.505233 0.375498 -1.954030 0.776811 0.000000 0.000000 0.000000 -3.831492 0.133567 0.151603 -0.406403 0.711367 -0.121352 5.511910 -4.823517 -0.019168 0.000000 0.000000 0.000000 -4.336852 -0.303907 0.070243 0.761178 -3.576541 -7.457273 -1.165075 -1.881021 0.833934 4.157636 0.118418 -72.036311 3.742973 -11.877919 0.958725 0.000000 0.000000 0.000000 -5.007656 -0.556017 0.245864 0.834500 7.306439 5.021049 -2.852420 -1.398372 -0.586096 3.526708 14.526935 76.256077 17.206372 22.134686 -7.638333 0.000000 0.000000 0.000000 
2.417635 90.850639 2.632740 0.000000 0.000000 0.000000 -1.035613 7.486055 -2.386538 -0.528928 9.578954 14.639390 11.602746 -3.677510 -3.900134 -12.605494 1.773148 -7.606246 1.981280 -0.106994 -1.868704 0.000000 0.000000 0.000000 -0.325933 7.230152 -2.756250 1.874159 -4.165866 -4.009041 9.819217 6.841272 4.771453 -7.846992 1.557626 1.194716 -1.362114 0.537345 0.286799 0.000000 0.000000 0.000000 -0.453662 8.873496 -2.592331 8.352852 0.260444 1.842002 3.294963 0.461643 -0.422426 0.499411 -1.645124 0.753959 0.000000 0.000000 0.000000 -3.747884 0.137235 0.248705 -0.567126 0.874534 -0.334538 5.239188 -4.965177 0.341452 0.000000 0.000000 0.000000 -4.191481 -0.267379 0.126880 0.822546 -3.532198 -7.276872 -1.319141 -2.048321 0.852090 4.086361 -0.389840 -72.266953 4.005429 -11.838754 0.837080 0.000000 0.000000 0.000000 -4.773853 -0.511124 0.298249 0.924258 7.272055 4.832966 -2.720439 -1.414097 -0.580937 3.371686 14.581938 76.292045 17.034792 22.535653 -8.659018 0.000000 0.000000 0.000000 
3.024266 90.779312 3.146606 0.000000 0.000000 0.000000 -1.337313 7.358122 -2.309704 0.038527 8.882838 14.105261 11.889378 -3.123324 -3.839551 -13.134327 2.041136 -6.946392 2.060706 -0.071659 -1.737912 0.000000 0.000000 0.000000 -0.681174 6.959923 -2.688472 2.986665 -4.176507 -4.826278 9.330898 6.907352 4.938745 -8.671407 1.957659 2.024278 -1.351402 0.537654 0.277768 0.000000 0.000000 0.000000 -0.571460 8.933922 -2.609474 8.289231 0.322265 1.839327 3.303898 0.480593 -0.305249 0.543109 -1.252298 0.760023 0.000000 0.000000 0.000000 -3.702233 0.121511 0.366389 -0.685184 1.029867 -0.432621 4.962148 -5.097792 0.692077 0.000000 0.000000 0.000000 -4.084883 -0.238534 0.225010 0.867523 -3.509413 -7.181699 -1.324938 -2.165408 0.862925 3.949653 -0.841935 -72.573280 4.319154 -11.830046 0.700322 0.000000 0.000000 0.000000 -4.582482 -0.480722 0.370825 1.007746 7.334179 4.714764 -2.533638 -1.368331 -0.490502 3.031453 14.388967 76.412461 16.611295 22.495307 -9.527154 0.000000 0.000000 0.000000 
3.626817 90.777771 3.535717 0.000000 0.000000 0.000000 -1.664386 7.155693 -2.249131 0.714541 8.134782 13.418416 12.187059 -2.640298 -3.596601 -13.682775 2.414946 -6.232474 2.200493 -0.014316 -1.614942 0.000000 0.000000 0.000000 -1.166672 6.694116 -2.599958 3.870430 -4.090045 -5.485312 8.905951 6.751354 4.999791 -9.726013 2.243552 2.930053 -1.016358 0.547276 0.348077 0.000000 0.000000 0.000000 -0.692584 8.973788 -2.639838 8.419908 0.355048 1.824364 3.228840 0.483350 -0.176179 0.417863 -0.906829 0.765469 0.000000 0.000000 0.000000 -3.698874 0.109763 0.475007 -0.765879 1.168825 -0.385750 4.650233 -5.158211 0.994373 0.000000 0.000000 0.000000 -4.046337 -0.214722 0.351834 0.885108 -3.515512 -7.146865 -1.269125 -2.273774 0.821839 3.743716 -1.219586 -72.845955 4.688177 -11.832680 0.545218 0.000000 0.000000 0.000000 -4.480970 -0.455106 0.448952 1.071757 7.456073 4.656903 -2.229722 -1.349900 -0.330633 2.574822 14.091186 76.522229 15.965402 22.071507 -10.165721 0.000000 0.000000 0.000000 
4.221478 90.772697 3.830151 0.000000 0.000000 0.000000 -1.971769 6.853863 -2.161518 1.327644 7.608699 12.583962 12.455881 -2.351334 -3.234438 -14.199635 2.756895 -5.658007 2.270168 0.045960 -1.472043 0.000000 0.000000 0.000000 -1.637731 6.520261 -2.500456 4.087509 -3.833713 -6.069206 9.072632 6.388246 4.986390 -10.738877 2.471302 3.763272 -0.730067 0.640280 0.456837 0.000000 0.000000 0.000000 -0.884283 8.998849 -2.626171 8.789827 0.332020 1.757644 3.068699 0.464191 -0.046728 0.182012 -0.720235 0.772715 0.000000 0.000000 0.000000 -3.733628 0.103945 0.563730 -0.840286 1.257962 -0.245035 4.229073 -5.125012 1.219221 0.000000 0.000000 0.000000 -4.075860 -0.197081 0.500742 0.868481 -3.557587 -7.141911 -1.304115 -2.261772 0.729706 3.551608 -1.603446 -73.008336 5.112499 -11.808659 0.356895 0.000000 0.000000 0.000000 -4.471458 -0.441251 0.524820 1.116612 7.559728 4.605272 -1.834318 -1.289904 -0.173507 2.096600 13.801255 76.550588 15.191415 21.515506 -10.544846 0.000000 0.000000 0.000000 
4.862351 90.762733 4.070843 0.000000 0.000000 0.000000 -2.206158 6.483060 -2.023077 1.790088 7.466211 11.641135 12.696857 -2.328344 -2.869589 -14.736239 2.919653 -5.301045 2.121324 0.097763 -1.276973 0.000000 0.000000 0.000000 -1.981844 6.516419 -2.356307 3.284957 -3.444746 -6.662047 10.274517 5.858915 4.875055 -11.250695 2.672100 4.495731 -1.227936 0.823638 0.557912 0.000000 0.000000 0.000000 -1.143392 8.954116 -2.531693 9.396586 0.236842 1.593156 2.840342 0.416872 0.100123 -0.014705 -0.694672 0.752829 0.000000 0.000000 0.000000 -3.790605 0.089725 0.651619 -0.926555 1.300027 -0.077890 3.598230 -4.998070 1.351957 0.000000 0.000000 0.000000 -4.150941 -0.196270 0.678931 0.823250 -3.604467 -7.158559 -1.398815 -2.028738 0.544932 3.419012 -2.107146 -73.040793 5.583660 -11.649123 0.117698 0.000000 0.000000 0.000000 -4.529275 -0.458834 0.606016 1.157953 7.570165 4.531651 -1.389383 -1.102375 -0.104280 1.651599 13.599290 76.503979 14.408573 21.106581 -10.663033 0.000000 0.000000 0.000000 
